<svg width="1600" height="900" viewBox="0 0 1600 900" fill="none" xmlns="http://www.w3.org/2000/svg" role="img" aria-label="Marketing hero">
  <defs>
    <linearGradient id="g1" x1="0" x2="1">
      <stop offset="0" stop-color="#7c3aed" stop-opacity="0.95"/>
      <stop offset="1" stop-color="#06b6d4" stop-opacity="0.9"/>
    </linearGradient>
    <filter id="blur" x="-50%" y="-50%" width="200%" height="200%">
      <feGaussianBlur stdDeviation="40" />
    </filter>
  </defs>

  <rect width="1600" height="900" rx="24" fill="url(#g1)" opacity="0.08" />

  <g filter="url(#blur)" opacity="0.9">
    <ellipse cx="380" cy="260" rx="300" ry="220" fill="#7c3aed" opacity="0.55" />
    <ellipse cx="1220" cy="320" rx="260" ry="200" fill="#06b6d4" opacity="0.45" />
    <ellipse cx="860" cy="640" rx="420" ry="240" fill="#0ea5e9" opacity="0.18" />
  </g>

  <g transform="translate(120,140)">
    <rect x="0" y="0" width="420" height="300" rx="16" fill="#fff" opacity="0.98" />
    <rect x="20" y="20" width="380" height="260" rx="12" fill="#f8fafc" />
    <rect x="36" y="36" width="100" height="22" rx="6" fill="#e6e9ef" />
    <rect x="36" y="70" width="320" height="22" rx="6" fill="#eef2ff" />
    <rect x="36" y="106" width="300" height="22" rx="6" fill="#fff7ed" />
    <rect x="36" y="142" width="260" height="22" rx="6" fill="#f0fdf4" />
  </g>

  <g transform="translate(720,120)">
    <rect x="0" y="0" width="480" height="340" rx="16" fill="#fff" opacity="0.98" />
    <rect x="18" y="18" width="444" height="304" rx="10" fill="#fbfbff" />
    <circle cx="90" cy="90" r="36" fill="#7c3aed" />
    <circle cx="162" cy="90" r="36" fill="#06b6d4" />
    <circle cx="234" cy="90" r="36" fill="#0ea5e9" />

    <rect x="36" y="150" width="380" height="20" rx="6" fill="#eef2ff" />
    <rect x="36" y="182" width="320" height="16" rx="6" fill="#e6eefc" />
    <rect x="36" y="208" width="300" height="16" rx="6" fill="#f3f7ff" />
  </g>

  <g transform="translate(120,500)">
    <text x="0" y="0" font-family="Poppins, Inter, system-ui" font-size="48" font-weight="700" fill="#0f172a">Convert Chats & PDFs Instantly</text>
    <text x="0" y="40" font-family="Inter, system-ui" font-size="20" fill="#273449" opacity="0.85">Clean, private, and fast — export WhatsApp chats to court-ready PDFs.</text>
  </g>
</svg>